<?xml version="1.0" encoding="UTF-8"?>
<svg id="Laag_2" data-name="Laag 2" xmlns="http://www.w3.org/2000/svg" viewBox="0 0 690.69 222.88">
  <defs>
    <style>
      .cls-1, .cls-2 {
        fill: #030402;
      }

      .cls-3 {
        fill: #060606;
      }

      .cls-4 {
        fill: #fff;
      }

      .cls-5 {
        fill: #ba9f81;
      }

      .cls-6 {
        fill: #cebda9;
      }

      .cls-7 {
        fill: #d7b7a3;
      }

      .cls-8 {
        fill: #b27b57;
      }

      .cls-9 {
        fill: #e2dbd0;
      }

      .cls-10 {
        fill: #9b775f;
      }

      .cls-11 {
        fill: #636363;
      }

      .cls-12, .cls-13, .cls-14 {
        fill: none;
        stroke-width: 1.28px;
      }

      .cls-12, .cls-13, .cls-14, .cls-2 {
        stroke: #030402;
      }

      .cls-12, .cls-2 {
        stroke-miterlimit: 10;
      }

      .cls-13 {
        stroke-linejoin: round;
      }

      .cls-14 {
        stroke-linejoin: bevel;
      }

      .cls-2 {
        stroke-width: .87px;
      }
    </style>
  </defs>
  <g id="Laag_1-2" data-name="Laag 1">
    <g>
      <g>
        <g>
          <path class="cls-3" d="m216.18,127.77h16.05l-21.12-67.17h-18.15l-21.02,67.17h15.57l4.12-15.96h20.42l4.12,15.96Zm-21.48-27.81l1.61-6.21c1.82-6.78,3.63-14.62,5.26-21.69h.38c1.82,6.98,3.63,15,5.45,21.69l1.61,6.21h-14.29Z"/>
          <path class="cls-3" d="m236.62,55.53h14.81v41.37h.38l16.24-20.26h16.43l-17.96,21.12,19.3,30.1h-16.43l-11.47-19.97-6.5,7.36v12.61h-14.81V55.53h0Z"/>
          <path class="cls-3" d="m288.51,102.25c0-17.01,11.94-26.85,24.94-26.85s24.94,9.84,24.94,26.85-11.94,26.75-24.94,26.75-24.94-9.84-24.94-26.75Zm34.3,0c0-8.89-3.15-14.62-9.36-14.62s-9.36,5.73-9.36,14.62,3.15,14.52,9.36,14.52,9.36-5.73,9.36-14.52Z"/>
          <path class="cls-3" d="m347.08,76.65h12.33l1.05,6.59h.38c4.2-4.2,8.79-7.84,15.48-7.84,7.17,0,11.56,3.06,14.14,8.6,4.49-4.68,9.27-8.6,16.05-8.6,11.08,0,16.05,7.84,16.05,20.64v31.72h-15.19v-29.81c0-7.36-2.01-9.65-6.31-9.65-2.58,0-5.45,1.62-8.7,4.97v34.49h-15.19v-29.81c0-7.36-2.01-9.65-6.31-9.65-2.48,0-5.45,1.62-8.7,4.97v34.49h-15.19l.1-51.12h0Z"/>
          <path class="cls-3" d="m430.79,102.25c0-17.01,11.94-26.85,24.94-26.85s24.94,9.84,24.94,26.85-11.94,26.75-24.94,26.75-24.94-9.84-24.94-26.75Zm34.3,0c0-8.89-3.15-14.62-9.36-14.62s-9.36,5.73-9.36,14.62,3.15,14.52,9.36,14.52,9.36-5.73,9.36-14.52Z"/>
          <path class="cls-3" d="m509.62,60.59h15.19v27.42h.38l20.07-27.42h16.72l-20.35,26.85,24.08,40.42h-16.63l-16.43-28.47-7.84,10.42v18.06h-15.19V60.59h0Z"/>
          <path class="cls-3" d="m568.76,61.26c0-4.68,3.73-7.93,8.79-7.93s8.79,3.25,8.79,7.93-3.73,7.93-8.79,7.93-8.79-3.34-8.79-7.93Zm1.24,15.38h15.1v51.12h-15.19v-51.12h.1Z"/>
          <path class="cls-3" d="m594.18,102.25c0-16.72,10.42-26.85,21.21-26.85,5.64,0,9.08,2.1,12.52,5.35l-.57-7.74v-17.49h15.19v72.24h-12.33l-1.05-5.06h-.38c-3.63,3.63-8.7,6.31-13.57,6.31-12.8,0-21.02-10.03-21.02-26.75Zm33.16,9.75v-21.02c-2.68-2.39-5.73-3.25-8.5-3.25-4.87,0-9.17,4.59-9.17,14.24s3.44,14.52,9.36,14.52c3.25.1,5.83-1.05,8.31-4.49Z"/>
          <path class="cls-3" d="m649.69,121.84l6.78-9.46c4.59,3.54,8.89,5.35,13.19,5.35s6.5-1.72,6.5-4.4c0-3.34-5.06-4.87-10.32-6.98-6.31-2.39-13.57-6.59-13.57-15,0-9.56,7.74-16.05,19.59-16.05,7.84,0,13.66,3.15,18.06,6.5l-6.78,9.08c-3.63-2.68-7.26-4.4-10.8-4.4-3.92,0-5.83,1.53-5.83,4.11,0,3.25,4.78,4.49,10.13,6.4,6.5,2.39,13.76,6.02,13.76,15.38s-7.26,16.53-21.02,16.53c-6.78.1-14.52-2.77-19.68-7.07Z"/>
        </g>
        <g>
          <path class="cls-11" d="m171.94,154.04h7.26c8.98,0,13.76,5.26,13.76,14.43s-4.78,14.71-13.57,14.71h-7.45v-29.14Zm6.98,26.09c6.78,0,10.22-4.3,10.22-11.66s-3.44-11.47-10.22-11.47h-3.34v23.03l3.34.1h0Z"/>
          <path class="cls-11" d="m197.93,172.39c0-7.07,4.68-11.37,9.75-11.37,5.54,0,8.6,3.92,8.6,10.13,0,.76-.1,1.53-.19,2.1h-14.52c.29,4.59,3.06,7.55,7.17,7.55,2.1,0,3.82-.67,5.35-1.72l1.34,2.39c-1.91,1.24-4.2,2.2-7.17,2.2-5.73.1-10.32-4.11-10.32-11.28Zm15.1-1.72c0-4.3-1.91-6.69-5.35-6.69-3.06,0-5.73,2.39-6.21,6.69h11.56Z"/>
          <path class="cls-11" d="m219.71,180.7l1.82-2.39c1.91,1.53,3.82,2.58,6.4,2.58,2.87,0,4.2-1.53,4.2-3.34,0-2.2-2.58-3.25-4.97-4.11-3.06-1.15-6.4-2.58-6.4-6.21,0-3.44,2.77-6.12,7.45-6.12,2.68,0,5.06,1.05,6.69,2.39l-1.72,2.39c-1.53-1.05-2.96-1.91-4.87-1.91-2.77,0-4.01,1.43-4.01,3.06,0,2.01,2.39,2.87,4.78,3.73,3.15,1.15,6.59,2.39,6.59,6.59,0,3.54-2.77,6.4-7.84,6.4-3.06,0-6.02-1.34-8.12-3.06Z"/>
          <path class="cls-11" d="m240.73,154.81c0-1.43,1.05-2.39,2.48-2.39s2.48.96,2.48,2.39c0,1.34-1.05,2.39-2.48,2.39s-2.48-1.05-2.48-2.39Zm.67,6.78h3.63v21.59h-3.63v-21.59Z"/>
          <path class="cls-11" d="m251.24,187.3c0-1.82,1.15-3.63,3.15-4.87v-.19c-1.05-.67-1.91-1.82-1.91-3.54,0-1.82,1.24-3.25,2.39-4.01v-.19c-1.43-1.15-2.77-3.25-2.77-5.83,0-4.68,3.73-7.64,8.12-7.64,1.15,0,2.29.19,3.06.57h7.55v2.77h-4.4c1.05.96,1.72,2.58,1.72,4.4,0,4.59-3.44,7.45-7.93,7.45-1.05,0-2.2-.29-3.25-.76-.76.67-1.34,1.34-1.34,2.58,0,1.34.86,2.39,3.82,2.39h4.2c4.97,0,7.55,1.53,7.55,5.16,0,4.01-4.2,7.45-10.89,7.45-5.35.1-9.08-2.01-9.08-5.73Zm16.34-1.05c0-2.01-1.53-2.68-4.3-2.68h-3.73c-.86,0-1.82-.1-2.77-.29-1.53,1.05-2.2,2.39-2.2,3.63,0,2.29,2.39,3.82,6.21,3.82,4.01-.1,6.78-2.29,6.78-4.49Zm-2.77-17.49c0-3.15-2.01-5.06-4.59-5.06s-4.59,1.91-4.59,5.06,2.1,5.16,4.59,5.16,4.59-2.01,4.59-5.16Z"/>
          <path class="cls-11" d="m275.9,161.59h3.06l.29,3.15h.1c2.01-2.01,4.3-3.63,7.26-3.63,4.59,0,6.59,2.96,6.59,8.41v13.66h-3.63v-13.19c0-4.01-1.24-5.73-4.11-5.73-2.2,0-3.73,1.15-5.92,3.34v15.67h-3.63v-21.69h0Z"/>
          <path class="cls-11" d="m310.68,154.04h16.82v3.15h-13.09v9.84h11.08v3.15h-11.08v13h-3.73v-29.14Z"/>
          <path class="cls-11" d="m332.56,175.26v-13.66h3.63v13.19c0,4.01,1.24,5.73,4.11,5.73,2.2,0,3.73-1.05,5.73-3.63v-15.29h3.63v21.59h-3.06l-.29-3.34h-.1c-2.01,2.39-4.2,3.92-7.17,3.92-4.4,0-6.5-2.96-6.5-8.5Z"/>
          <path class="cls-11" d="m357.69,161.59h3.06l.29,3.92h.1c1.53-2.77,3.73-4.49,6.12-4.49.96,0,1.62.1,2.29.48l-.67,3.25c-.76-.19-1.24-.38-2.1-.38-1.82,0-4.01,1.34-5.45,4.97v13.85h-3.63v-21.59h0Z"/>
          <path class="cls-11" d="m373.65,161.59h3.06l.29,3.15h.1c2.01-2.01,4.3-3.63,7.26-3.63,4.59,0,6.59,2.96,6.59,8.41v13.66h-3.63v-13.19c0-4.01-1.24-5.73-4.11-5.73-2.2,0-3.73,1.15-5.92,3.34v15.67h-3.63v-21.69h0Z"/>
          <path class="cls-11" d="m397.92,154.81c0-1.43,1.05-2.39,2.48-2.39s2.48.96,2.48,2.39c0,1.34-1.05,2.39-2.48,2.39s-2.48-1.05-2.48-2.39Zm.67,6.78h3.63v21.59h-3.63v-21.59Z"/>
          <path class="cls-11" d="m410.72,176.5v-11.94h-3.25v-2.77l3.34-.19.48-6.02h3.06v6.02h5.83v2.96h-5.83v11.94c0,2.68.86,4.2,3.34,4.2.76,0,1.72-.29,2.48-.57l.67,2.77c-1.24.38-2.68.76-4.01.76-4.49.1-6.12-2.87-6.12-7.17Z"/>
          <path class="cls-11" d="m425.43,175.26v-13.66h3.63v13.19c0,4.01,1.24,5.73,4.11,5.73,2.2,0,3.73-1.05,5.73-3.63v-15.29h3.63v21.59h-3.06l-.29-3.34h-.1c-2.01,2.39-4.2,3.92-7.17,3.92-4.4,0-6.5-2.96-6.5-8.5Z"/>
          <path class="cls-11" d="m450.56,161.59h3.06l.29,3.92h.1c1.53-2.77,3.73-4.49,6.12-4.49.96,0,1.62.1,2.29.48l-.67,3.25c-.76-.19-1.24-.38-2.1-.38-1.82,0-4.01,1.34-5.45,4.97v13.85h-3.63v-21.59h0Z"/>
          <path class="cls-11" d="m464.9,172.39c0-7.07,4.78-11.37,9.75-11.37,5.54,0,8.6,3.92,8.6,10.13,0,.76-.1,1.53-.19,2.1h-14.52c.29,4.59,3.06,7.55,7.17,7.55,2.1,0,3.82-.67,5.35-1.72l1.34,2.39c-1.91,1.24-4.2,2.2-7.17,2.2-5.73.1-10.32-4.11-10.32-11.28Zm15.1-1.72c0-4.3-1.91-6.69-5.35-6.69-3.06,0-5.73,2.39-6.21,6.69h11.56Z"/>
          <path class="cls-11" d="m496.43,175.64c0-8.6,13.28-10.03,13.28-16.34,0-1.72-.76-3.25-2.77-3.25-2.2,0-3.63,1.82-3.63,4.2,0,5.45,6.02,12.71,11.56,16.82,2.29,1.72,4.49,2.96,6.4,3.44l-.96,3.06c-2.29-.67-4.97-2.01-7.64-4.01-6.4-4.97-12.52-13.09-12.52-19.21,0-3.92,2.68-6.88,6.69-6.88,3.63,0,5.73,2.39,5.73,5.73,0,7.45-12.71,9.75-12.71,16.15,0,3.25,2.58,5.35,5.73,5.35,2.39,0,4.78-1.43,6.69-3.44,2.39-2.58,4.11-5.92,5.26-9.94h3.34c-1.24,4.3-3.25,8.41-6.12,11.66-2.48,2.68-5.54,4.59-9.65,4.59-5.06.19-8.7-3.25-8.7-7.93Z"/>
          <path class="cls-11" d="m536.18,154.04h3.73v25.99h12.71v3.15h-16.43v-29.14Z"/>
          <path class="cls-11" d="m557.39,154.81c0-1.43,1.15-2.39,2.48-2.39s2.48.96,2.48,2.39c0,1.34-1.15,2.39-2.48,2.39s-2.48-1.05-2.48-2.39Zm.67,6.78h3.63v21.59h-3.63v-21.59Z"/>
          <path class="cls-11" d="m567.23,161.78l3.06-.19h8.03v2.96h-11.18l.1-2.77h0Zm2.96-3.63c0-4.4,2.01-7.17,6.31-7.17,1.34,0,2.58.38,3.63.76l-.76,2.77c-.86-.38-1.72-.57-2.48-.57-2.01,0-3.06,1.43-3.06,4.2v24.94h-3.63v-24.94Z"/>
          <path class="cls-11" d="m581.57,172.39c0-7.07,4.78-11.37,9.75-11.37,5.54,0,8.6,3.92,8.6,10.13,0,.76-.1,1.53-.19,2.1h-14.52c.29,4.59,3.06,7.55,7.17,7.55,2.1,0,3.82-.67,5.35-1.72l1.34,2.39c-1.91,1.24-4.2,2.2-7.17,2.2-5.73.1-10.32-4.11-10.32-11.28Zm15.1-1.72c0-4.3-1.91-6.69-5.35-6.69-3.06,0-5.73,2.39-6.21,6.69h11.56Z"/>
          <path class="cls-11" d="m603.45,180.7l1.82-2.39c1.91,1.53,3.82,2.58,6.4,2.58,2.87,0,4.2-1.53,4.2-3.34,0-2.2-2.58-3.25-4.97-4.11-3.06-1.15-6.4-2.58-6.4-6.21,0-3.44,2.77-6.12,7.45-6.12,2.68,0,5.06,1.05,6.69,2.39l-1.72,2.39c-1.43-1.05-3.06-1.91-4.97-1.91-2.68,0-4.01,1.43-4.01,3.06,0,2.01,2.39,2.87,4.78,3.73,3.15,1.15,6.59,2.39,6.59,6.59,0,3.54-2.77,6.4-7.84,6.4-3.06,0-6.02-1.34-8.03-3.06Z"/>
          <path class="cls-11" d="m625.71,176.5v-11.94h-3.25v-2.77l3.34-.19.48-6.02h3.06v6.02h5.83v2.96h-5.83v11.94c0,2.68.86,4.2,3.34,4.2.76,0,1.72-.29,2.48-.57l.67,2.77c-1.24.38-2.68.76-4.01.76-4.59.1-6.12-2.87-6.12-7.17Z"/>
          <path class="cls-11" d="m638.51,192.07l.76-2.87c.48.1,1.05.29,1.62.29,2.39,0,4.01-1.91,4.87-4.68l.48-1.62-8.7-21.59h3.73l4.4,11.94c.67,1.91,1.43,4.11,2.1,6.12h.19c.57-1.91,1.24-4.2,1.82-6.12l3.82-11.94h3.54l-8.12,23.31c-1.53,4.3-3.73,7.55-8.12,7.55-.86,0-1.72-.19-2.39-.38Z"/>
          <path class="cls-11" d="m662.02,178.89v-27.33h3.63v27.52c0,1.15.48,1.53,1.05,1.53.19,0,.38,0,.76-.1l.48,2.77c-.48.19-1.15.38-2.1.38-2.68.1-3.82-1.72-3.82-4.78Z"/>
          <path class="cls-11" d="m672.34,172.39c0-7.07,4.78-11.37,9.75-11.37,5.54,0,8.6,3.92,8.6,10.13,0,.76-.1,1.53-.19,2.1h-14.52c.29,4.59,3.06,7.55,7.17,7.55,2.1,0,3.82-.67,5.35-1.72l1.34,2.39c-1.91,1.24-4.2,2.2-7.17,2.2-5.73.1-10.32-4.11-10.32-11.28Zm15.1-1.72c0-4.3-1.91-6.69-5.35-6.69-3.06,0-5.73,2.39-6.21,6.69h11.56Z"/>
        </g>
      </g>
      <g>
        <g>
          <circle class="cls-4" cx="98.76" cy="40.05" r="5.94"/>
          <path class="cls-4" d="m53.07,36.23c3.22,0,5.94,2.62,5.94,5.94s-2.62,5.94-5.94,5.94-5.94-2.62-5.94-5.94c.1-3.32,2.72-5.94,5.94-5.94Z"/>
          <polygon class="cls-4" points="27.51 162.01 43.71 210.11 22.78 203.98 1.45 201.86 27.51 162.01"/>
          <polygon class="cls-9" points="48.44 107.88 95.13 149.33 81.35 182.94 81.35 182.84 81.35 182.84 81.35 182.84 76.42 176.81 34.35 123.88 48.34 107.78 48.44 107.88"/>
          <polygon class="cls-4" points="124.01 86.44 95.13 149.33 74.4 77.89 124.01 86.44"/>
          <polygon class="cls-5" points="82.15 49.51 77.02 63.3 70.38 50.72 82.15 49.51"/>
          <polygon class="cls-5" points="74.4 77.89 31.03 69.84 29.12 52.63 33.04 35.52 39.28 26.06 40.69 57.96 74.4 77.89"/>
          <polygon class="cls-8" points="59.81 13.39 39.28 26.06 33.75 4.73 59.81 13.39"/>
          <polygon class="cls-7" points="120.79 1.41 111.94 19.12 120.19 34.12 120.19 61.18 74.4 77.89 108.42 60.18 113.35 38.04 96.34 13.39 120.79 1.41"/>
          <polygon class="cls-4" points="31.03 69.84 48.34 107.78 34.35 123.88 11.11 94.69 31.03 69.84"/>
          <polygon class="cls-6" points="59.81 155.88 43.71 210.11 27.51 162.01 33.25 125.08 34.35 123.88 76.42 176.81 59.81 155.88"/>
          <polygon class="cls-8" points="81.35 182.84 81.35 182.84 79.64 188.28 69.17 220.38 63.94 222.19 43.71 210.11 81.35 182.84"/>
          <polygon class="cls-8" points="120.19 61.18 124.01 86.44 74.4 77.89 120.19 61.18"/>
          <polygon class="cls-4" points="96.34 13.39 77.02 63.3 82.15 49.51 70.38 50.72 52.97 17.71 59.81 13.39 96.34 13.39"/>
          <polygon class="cls-9" points="33.25 125.08 27.51 162.01 1.45 201.86 .64 158.99 33.25 125.08"/>
          <path class="cls-9" d="m98.76,45.99c3.22,0,5.94-2.62,5.94-5.94s-2.62-5.94-5.94-5.94-5.94,2.62-5.94,5.94,2.72,5.94,5.94,5.94Zm-45.79-28.28l17.41,32.91h0l6.74,12.68,19.22-49.91,17.01,24.65-4.93,22.14-33.91,17.71-33.71-19.92-1.41-32,20.43-12.58-6.84,4.33Zm.1,30.29c3.22,0,5.94-2.62,5.94-5.94s-2.62-5.94-5.94-5.94-5.94,2.62-5.94,5.94c.1,3.32,2.72,5.94,5.94,5.94Z"/>
          <polygon class="cls-9" points="74.4 77.89 48.34 107.78 31.03 69.84 74.4 77.89"/>
          <polygon class="cls-10" points="11.11 94.69 34.35 123.88 33.25 125.08 .64 158.99 11.11 94.69"/>
          <polygon class="cls-4" points="76.42 176.81 81.35 182.84 43.71 210.11 59.81 155.88 76.42 176.81"/>
          <polygon class="cls-6" points="69.17 220.68 79.64 188.28 81.35 182.94 95.13 149.33 124.01 86.44 124.31 134.54 86.08 215.85 63.94 222.19 69.17 220.68"/>
          <polygon class="cls-7" points="74.4 77.89 95.13 149.33 48.44 107.88 48.34 107.78 74.4 77.89"/>
        </g>
        <g>
          <polyline class="cls-12" points="43.71 210.11 59.81 155.88 76.42 176.81"/>
          <line class="cls-14" x1="81.35" y1="182.94" x2="79.64" y2="188.28"/>
          <polyline class="cls-14" points="59.81 13.39 39.28 26.06 40.69 57.96 74.4 77.89 108.42 60.18 113.35 38.04 96.34 13.39"/>
          <polyline class="cls-14" points="59.81 13.39 52.97 17.71 70.38 50.72"/>
          <line class="cls-14" x1="77.02" y1="63.3" x2="96.34" y2="13.39"/>
          <line class="cls-14" x1="95.13" y1="149.33" x2="124.01" y2="86.44"/>
          <polyline class="cls-14" points="74.4 77.89 31.03 69.84 48.34 107.78"/>
          <polyline class="cls-14" points="81.35 182.84 81.35 182.94 95.13 149.33"/>
          <polyline class="cls-14" points="48.34 107.78 34.35 123.88 76.42 176.81 81.35 182.84"/>
          <polygon class="cls-14" points="48.34 107.78 48.44 107.88 95.13 149.33 74.4 77.89 48.34 107.78"/>
          <polyline class="cls-14" points="33.25 125.08 34.35 123.88 11.11 94.69"/>
          <line class="cls-14" x1="43.71" y1="210.11" x2="27.51" y2="162.01"/>
          <polyline class="cls-14" points="1.45 201.86 27.51 162.01 33.25 125.08 .64 158.99"/>
          <line class="cls-13" x1="81.35" y1="182.84" x2="43.71" y2="210.11"/>
          <line class="cls-14" x1="79.64" y1="188.28" x2="81.35" y2="182.84"/>
          <polygon class="cls-14" points="79.64 188.28 69.17 220.38 63.94 222.19 69.17 220.68 79.64 188.28"/>
          <polyline class="cls-14" points="70.38 50.72 70.28 50.72 77.02 63.3"/>
          <polygon class="cls-12" points="70.38 50.72 77.02 63.3 82.15 49.51 70.38 50.72"/>
          <polygon class="cls-2" points="72.54 54.81 77.02 63.3 80.48 54 72.54 54.81"/>
          <polyline class="cls-14" points="120.19 61.18 74.4 77.89 124.01 86.44"/>
          <path class="cls-14" d="m53.07,36.23c-3.22,0-5.94,2.62-5.94,5.94s2.62,5.94,5.94,5.94,5.94-2.62,5.94-5.94-2.62-5.94-5.94-5.94Z"/>
          <circle class="cls-14" cx="98.76" cy="40.05" r="5.94"/>
          <polygon class="cls-12" points="124.01 86.44 120.19 61.18 120.19 34.12 111.94 19.12 120.79 1.41 96.34 13.39 59.81 13.39 33.75 4.73 39.28 26.06 33.04 35.52 29.12 52.63 31.03 69.84 11.11 94.69 .64 158.99 1.45 201.86 22.78 203.98 43.71 210.11 63.94 222.19 86.08 215.85 124.31 134.54 124.01 86.44"/>
        </g>
        <polygon class="cls-1" points="74.4 77.89 69.94 82.61 31.03 69.84 74.4 77.89"/>
        <polygon class="cls-1" points="4.64 155.03 32.27 133.68 34.35 123.88 4.64 155.03"/>
        <polygon class="cls-1" points="119.75 111.92 124.31 134.54 124.01 86.44 119.75 111.92"/>
        <polygon class="cls-1" points="106.16 16.69 118.43 5.51 111.9 19.8 106.16 16.69"/>
        <polygon class="cls-1" points="48.51 20.75 40.08 9.43 52.97 17.71 48.51 20.75"/>
        <line class="cls-14" x1="33.75" y1="4.73" x2="52.97" y2="17.71"/>
      </g>
    </g>
  </g>
</svg>