<svg width="351" height="113" viewBox="0 0 351 113" fill="none" xmlns="http://www.w3.org/2000/svg">
<path d="M110.324 64.9566H118.465L107.752 31.4902H98.5466L87.885 64.9566H95.7823L97.872 57.0048H108.229L110.319 64.9566H110.324ZM99.4291 51.1007L100.246 48.0067C101.169 44.6287 102.087 40.7225 102.914 37.2H103.106C104.029 40.6777 104.948 44.6735 105.871 48.0067L106.687 51.1007H99.4392H99.4291Z" fill="#060606"/>
<path d="M120.691 28.9644H128.203V49.5763H128.396L136.633 39.4821H144.966L135.857 50.0048L145.646 65.0016H137.313L131.495 55.0519L128.198 58.7189V65.0016H120.686V28.9644H120.691Z" fill="#060606"/>
<path d="M147.01 52.2418C147.01 43.7669 153.067 38.8643 159.66 38.8643C166.254 38.8643 172.31 43.7669 172.31 52.2418C172.31 60.7168 166.254 65.5696 159.66 65.5696C153.067 65.5696 147.01 60.667 147.01 52.2418ZM164.408 52.2418C164.408 47.8125 162.81 44.9577 159.66 44.9577C156.511 44.9577 154.913 47.8125 154.913 52.2418C154.913 56.6711 156.511 59.4762 159.66 59.4762C162.81 59.4762 164.408 56.6213 164.408 52.2418Z" fill="#060606"/>
<path d="M176.718 39.487H182.972L183.504 42.7704H183.697C185.827 40.6778 188.155 38.8643 191.548 38.8643C195.185 38.8643 197.412 40.3889 198.72 43.1491C200.998 40.8173 203.422 38.8643 206.861 38.8643C212.481 38.8643 215.002 42.7704 215.002 49.1478V64.9518H207.297V50.0994C207.297 46.4324 206.278 45.2915 204.097 45.2915C202.788 45.2915 201.333 46.0986 199.684 47.7677V64.9518H191.98V50.0994C191.98 46.4324 190.96 45.2915 188.779 45.2915C187.521 45.2915 186.015 46.0986 184.366 47.7677V64.9518H176.662L176.713 39.4821L176.718 39.487Z" fill="#060606"/>
<path d="M219.176 52.2418C219.176 43.7669 225.232 38.8643 231.826 38.8643C238.42 38.8643 244.476 43.7669 244.476 52.2418C244.476 60.7168 238.42 65.5696 231.826 65.5696C225.232 65.5696 219.176 60.667 219.176 52.2418ZM236.574 52.2418C236.574 47.8125 234.976 44.9577 231.826 44.9577C228.676 44.9577 227.079 47.8125 227.079 52.2418C227.079 56.6711 228.676 59.4762 231.826 59.4762C234.976 59.4762 236.574 56.6213 236.574 52.2418Z" fill="#060606"/>
<path d="M259.159 31.4854H266.864V45.1469H267.057L277.236 31.4854H285.717L275.395 44.8629L287.609 65.0015H279.174L270.84 50.8168L266.864 56.0084V65.0065H259.159V31.4854Z" fill="#060606"/>
<path d="M289.156 31.8192C289.156 29.4874 291.048 27.8682 293.614 27.8682C296.181 27.8682 298.073 29.4874 298.073 31.8192C298.073 34.1509 296.181 35.7701 293.614 35.7701C291.048 35.7701 289.156 34.106 289.156 31.8192ZM289.785 39.482H297.444V64.9517H289.739V39.482H289.79H289.785Z" fill="#060606"/>
<path d="M302.049 52.2417C302.049 43.9112 307.334 38.8641 312.807 38.8641C315.668 38.8641 317.412 39.9104 319.157 41.5297L318.868 37.6733V28.9592H326.573V64.9516H320.319L319.786 62.4305H319.593C317.752 64.2391 315.181 65.5744 312.711 65.5744C306.218 65.5744 302.049 60.5771 302.049 52.2467V52.2417ZM318.868 57.0995V46.6266C317.509 45.4358 315.962 45.0073 314.557 45.0073C312.087 45.0073 309.906 47.2942 309.906 52.1022C309.906 56.9101 311.651 59.3365 314.653 59.3365C316.302 59.3863 317.61 58.8134 318.868 57.0995Z" fill="#060606"/>
<path d="M330.204 62.0022L333.643 57.2889C335.971 59.0527 338.152 59.9545 340.333 59.9545C342.514 59.9545 343.63 59.0975 343.63 57.7623C343.63 56.0982 341.064 55.3359 338.396 54.2846C335.195 53.0938 331.513 51.0012 331.513 46.8111C331.513 42.048 335.439 38.8145 341.449 38.8145C345.426 38.8145 348.378 40.3839 350.609 42.053L347.171 46.5769C345.329 45.2417 343.488 44.3847 341.693 44.3847C339.704 44.3847 338.736 45.147 338.736 46.4324C338.736 48.0517 341.16 48.6695 343.874 49.6211C347.171 50.8119 350.853 52.6205 350.853 57.284C350.853 61.9474 347.17 65.5198 340.191 65.5198C336.752 65.5696 332.827 64.1397 330.209 61.9973L330.204 62.0022Z" fill="#060606"/>
<path d="M87.885 78.0454H91.5674C96.1221 78.0454 98.5466 80.6661 98.5466 85.2349C98.5466 89.8037 96.1221 92.5639 91.6637 92.5639H87.885V78.0454ZM91.4253 91.0443C94.8642 91.0443 96.609 88.9019 96.609 85.2349C96.609 81.5679 94.8642 79.5202 91.4253 79.5202H89.7313V90.9945L91.4253 91.0443Z" fill="#636363"/>
<path d="M101.067 87.1879C101.067 83.6654 103.441 81.5229 106.013 81.5229C108.823 81.5229 110.375 83.476 110.375 86.57C110.375 86.9487 110.324 87.3323 110.278 87.6163H102.914C103.061 89.9032 104.466 91.378 106.55 91.378C107.615 91.378 108.488 91.0442 109.264 90.521L109.944 91.7118C108.975 92.3296 107.813 92.8079 106.307 92.8079C103.401 92.8578 101.072 90.7602 101.072 87.1879H101.067ZM108.726 86.3309C108.726 84.1885 107.757 82.9977 106.013 82.9977C104.461 82.9977 103.106 84.1885 102.863 86.3309H108.726Z" fill="#636363"/>
<path d="M112.115 91.3283L113.038 90.1375C114.006 90.8998 114.975 91.4229 116.284 91.4229C117.739 91.4229 118.414 90.6606 118.414 89.7588C118.414 88.6627 117.105 88.1396 115.893 87.7111C114.341 87.1381 112.647 86.4256 112.647 84.6171C112.647 82.9031 114.052 81.5679 116.426 81.5679C117.785 81.5679 118.992 82.091 119.819 82.7586L118.947 83.9494C118.171 83.4263 117.445 82.9978 116.477 82.9978C115.072 82.9978 114.443 83.7103 114.443 84.5224C114.443 85.5238 115.655 85.9523 116.867 86.3808C118.465 86.9538 120.21 87.5716 120.21 89.6642C120.21 91.4279 118.805 92.8529 116.233 92.8529C114.681 92.8529 113.18 92.1852 112.115 91.3283Z" fill="#636363"/>
<path d="M122.776 78.4291C122.776 77.7166 123.308 77.2383 124.034 77.2383C124.759 77.2383 125.292 77.7166 125.292 78.4291C125.292 79.0967 124.759 79.6198 124.034 79.6198C123.308 79.6198 122.776 79.0967 122.776 78.4291ZM123.116 81.8071H124.957V92.5639H123.116V81.8071Z" fill="#636363"/>
<path d="M128.107 94.6167C128.107 93.7099 128.69 92.8081 129.705 92.1903V92.0956C129.172 91.7618 128.736 91.1888 128.736 90.3319C128.736 89.4251 129.365 88.7126 129.948 88.3339V88.2393C129.223 87.6663 128.543 86.62 128.543 85.3346C128.543 83.0028 130.435 81.5281 132.662 81.5281C133.245 81.5281 133.823 81.6227 134.214 81.8121H138.043V83.1922H135.811C136.344 83.6705 136.684 84.4776 136.684 85.3844C136.684 87.6713 134.939 89.0962 132.662 89.0962C132.129 89.0962 131.546 88.9518 131.013 88.7176C130.628 89.0514 130.334 89.3852 130.334 90.003C130.334 90.6707 130.77 91.1938 132.271 91.1938H134.401C136.922 91.1938 138.231 91.9561 138.231 93.7647C138.231 95.7626 136.101 97.4765 132.707 97.4765C129.994 97.5263 128.102 96.4751 128.102 94.6216L128.107 94.6167ZM136.395 94.0935C136.395 93.0921 135.619 92.7583 134.214 92.7583H132.322C131.886 92.7583 131.399 92.7084 130.917 92.6138C130.141 93.1369 129.801 93.8046 129.801 94.4224C129.801 95.5633 131.013 96.3256 132.951 96.3256C134.985 96.2758 136.39 95.1847 136.39 94.0885L136.395 94.0935ZM134.99 85.3794C134.99 83.81 133.97 82.8584 132.662 82.8584C131.353 82.8584 130.334 83.81 130.334 85.3794C130.334 86.9489 131.399 87.9503 132.662 87.9503C133.925 87.9503 134.99 86.9489 134.99 85.3794Z" fill="#636363"/>
<path d="M140.615 81.807H142.167L142.314 83.3765H142.364C143.384 82.375 144.545 81.5679 146.047 81.5679C148.375 81.5679 149.389 83.0426 149.389 85.758V92.5639H147.548V85.9922C147.548 83.9943 146.919 83.1373 145.463 83.1373C144.348 83.1373 143.572 83.7103 142.461 84.8014V92.6087H140.62V81.802L140.615 81.807Z" fill="#636363"/>
<path d="M158.255 78.0454H166.787V79.6149H160.147V84.5175H165.767V86.0869H160.147V92.5639H158.255V78.0454Z" fill="#636363"/>
<path d="M169.353 88.6179V81.812H171.194V88.3837C171.194 90.3816 171.823 91.2386 173.279 91.2386C174.395 91.2386 175.171 90.7154 176.185 89.43V81.812H178.026V92.5689H176.474L176.327 90.9048H176.276C175.257 92.0955 174.146 92.8578 172.64 92.8578C170.408 92.8578 169.343 91.3831 169.343 88.6229L169.353 88.6179Z" fill="#636363"/>
<path d="M182.099 81.8069H183.651L183.798 83.76H183.849C184.625 82.3799 185.741 81.5229 186.953 81.5229C187.44 81.5229 187.775 81.5728 188.115 81.7621L187.775 83.3814C187.389 83.2867 187.146 83.192 186.71 83.192C185.787 83.192 184.676 83.8597 183.945 85.6682V92.5688H182.104V81.8119L182.099 81.8069Z" fill="#636363"/>
<path d="M190.194 81.807H191.746L191.893 83.3765H191.944C192.964 82.375 194.125 81.5679 195.627 81.5679C197.955 81.5679 198.969 83.0426 198.969 85.758V92.5639H197.128V85.9922C197.128 83.9943 196.499 83.1373 195.043 83.1373C193.927 83.1373 193.151 83.7103 192.041 84.8014V92.6087H190.199V81.802L190.194 81.807Z" fill="#636363"/>
<path d="M202.504 78.4291C202.504 77.7166 203.037 77.2383 203.762 77.2383C204.488 77.2383 205.02 77.7166 205.02 78.4291C205.02 79.0967 204.488 79.6198 203.762 79.6198C203.037 79.6198 202.504 79.0967 202.504 78.4291ZM202.844 81.8071H204.685V92.5639H202.844V81.8071Z" fill="#636363"/>
<path d="M208.997 89.2358V83.2869H207.348V81.9068L209.042 81.8121L209.286 78.8127H210.838V81.8121H213.795V83.2869H210.838V89.2358C210.838 90.5711 211.274 91.3284 212.532 91.3284C212.917 91.3284 213.404 91.1839 213.79 91.0444L214.13 92.4245C213.501 92.6138 212.77 92.8031 212.096 92.8031C209.818 92.853 208.991 91.3732 208.991 89.2308L208.997 89.2358Z" fill="#636363"/>
<path d="M216.458 88.6179V81.812H218.299V88.3837C218.299 90.3816 218.928 91.2386 220.383 91.2386C221.499 91.2386 222.275 90.7154 223.29 89.43V81.812H225.131V92.5689H223.579L223.432 90.9048H223.381C222.362 92.0955 221.251 92.8578 219.744 92.8578C217.513 92.8578 216.448 91.3831 216.448 88.6229L216.458 88.6179Z" fill="#636363"/>
<path d="M229.204 81.8069H230.756L230.903 83.76H230.954C231.73 82.3799 232.846 81.5229 234.058 81.5229C234.545 81.5229 234.88 81.5728 235.219 81.7621L234.88 83.3814C234.494 83.2867 234.251 83.192 233.814 83.192C232.891 83.192 231.78 83.8597 231.05 85.6682V92.5688H229.209V81.8119L229.204 81.8069Z" fill="#636363"/>
<path d="M236.477 87.1879C236.477 83.6654 238.902 81.5229 241.423 81.5229C244.233 81.5229 245.785 83.476 245.785 86.57C245.785 86.9487 245.734 87.3323 245.688 87.6163H238.324C238.471 89.9032 239.876 91.378 241.96 91.378C243.025 91.378 243.898 91.0442 244.674 90.521L245.353 91.7118C244.385 92.3296 243.223 92.8079 241.717 92.8079C238.81 92.8578 236.482 90.7602 236.482 87.1879H236.477ZM244.136 86.3309C244.136 84.1885 243.167 82.9977 241.423 82.9977C239.871 82.9977 238.516 84.1885 238.273 86.3309H244.136Z" fill="#636363"/>
<path d="M252.47 88.8073C252.47 84.5225 259.205 83.81 259.205 80.6662C259.205 79.8092 258.82 79.0469 257.8 79.0469C256.685 79.0469 255.959 79.9537 255.959 81.1395C255.959 83.8549 259.013 87.472 261.823 89.5198C262.984 90.3767 264.1 90.9945 265.069 91.2337L264.582 92.7583C263.42 92.4245 262.061 91.7568 260.707 90.7604C257.461 88.2842 254.356 84.2385 254.356 81.1893C254.356 79.2362 255.716 77.7615 257.75 77.7615C259.591 77.7615 260.656 78.9523 260.656 80.6163C260.656 84.3282 254.209 85.4741 254.209 88.6628C254.209 90.2821 255.518 91.3284 257.116 91.3284C258.328 91.3284 259.54 90.6159 260.509 89.6144C261.721 88.329 262.594 86.6649 263.177 84.662H264.871C264.242 86.8044 263.222 88.8521 261.767 90.4714C260.509 91.8067 258.957 92.7583 256.872 92.7583C254.306 92.853 252.459 91.139 252.459 88.8073H252.47Z" fill="#636363"/>
<path d="M272.631 78.0454H274.523V90.9945H280.97V92.5639H272.636V78.0454H272.631Z" fill="#636363"/>
<path d="M283.389 78.4291C283.389 77.7166 283.972 77.2383 284.647 77.2383C285.321 77.2383 285.905 77.7166 285.905 78.4291C285.905 79.0967 285.321 79.6198 284.647 79.6198C283.972 79.6198 283.389 79.0967 283.389 78.4291ZM283.729 81.8071H285.57V92.5639H283.729V81.8071Z" fill="#636363"/>
<path d="M288.38 81.9017L289.932 81.807H294.005V83.2818H288.334L288.385 81.9017H288.38ZM289.881 80.0931C289.881 77.9009 290.901 76.5208 293.082 76.5208C293.761 76.5208 294.39 76.7101 294.923 76.8994L294.537 78.2795C294.101 78.0902 293.665 77.9955 293.28 77.9955C292.26 77.9955 291.727 78.708 291.727 80.0881V92.514H289.886V80.0881L289.881 80.0931Z" fill="#636363"/>
<path d="M295.653 87.1879C295.653 83.6654 298.078 81.5229 300.599 81.5229C303.409 81.5229 304.961 83.476 304.961 86.57C304.961 86.9487 304.91 87.3323 304.864 87.6163H297.5C297.647 89.9032 299.052 91.378 301.136 91.378C302.201 91.378 303.074 91.0442 303.85 90.521L304.529 91.7118C303.561 92.3296 302.399 92.8079 300.893 92.8079C297.986 92.8578 295.658 90.7602 295.658 87.1879H295.653ZM303.312 86.3309C303.312 84.1885 302.343 82.9977 300.599 82.9977C299.047 82.9977 297.692 84.1885 297.449 86.3309H303.312Z" fill="#636363"/>
<path d="M306.751 91.3283L307.674 90.1375C308.643 90.8998 309.612 91.4229 310.92 91.4229C312.376 91.4229 313.051 90.6606 313.051 89.7588C313.051 88.6627 311.742 88.1396 310.53 87.7111C308.978 87.1381 307.284 86.4256 307.284 84.6171C307.284 82.9031 308.689 81.5679 311.062 81.5679C312.422 81.5679 313.629 82.091 314.456 82.7586L313.583 83.9494C312.858 83.4263 312.031 82.9978 311.062 82.9978C309.703 82.9978 309.029 83.7103 309.029 84.5224C309.029 85.5238 310.241 85.9523 311.453 86.3808C313.051 86.9538 314.796 87.5716 314.796 89.6642C314.796 91.4279 313.391 92.8529 310.819 92.8529C309.267 92.8529 307.766 92.1852 306.746 91.3283H306.751Z" fill="#636363"/>
<path d="M318.041 89.2358V83.2869H316.393V81.9068L318.087 81.8121L318.331 78.8127H319.883V81.8121H322.84V83.2869H319.883V89.2358C319.883 90.5711 320.319 91.3284 321.577 91.3284C321.962 91.3284 322.449 91.1839 322.835 91.0444L323.174 92.4245C322.546 92.6138 321.815 92.8031 321.141 92.8031C318.812 92.853 318.036 91.3732 318.036 89.2308L318.041 89.2358Z" fill="#636363"/>
<path d="M324.534 96.9932L324.919 95.5632C325.163 95.6131 325.452 95.7077 325.741 95.7077C326.953 95.7077 327.775 94.7561 328.211 93.376L328.454 92.5689L324.042 81.812H325.934L328.165 87.7609C328.505 88.7125 328.891 89.8087 329.231 90.8101H329.327C329.616 89.8585 329.956 88.7175 330.25 87.7609L332.188 81.812H333.983L329.865 93.4258C329.088 95.5682 327.973 97.1875 325.746 97.1875C325.31 97.1875 324.874 97.0928 324.534 96.9982V96.9932Z" fill="#636363"/>
<path d="M336.458 90.4265V76.8098H338.299V90.5212C338.299 91.0942 338.543 91.2835 338.832 91.2835C338.928 91.2835 339.025 91.2835 339.217 91.2337L339.461 92.6138C339.217 92.7084 338.878 92.8031 338.396 92.8031C337.036 92.8529 336.458 91.9462 336.458 90.4216V90.4265Z" fill="#636363"/>
<path d="M341.693 87.1879C341.693 83.6654 344.117 81.5229 346.638 81.5229C349.448 81.5229 351 83.476 351 86.57C351 86.9487 350.949 87.3323 350.904 87.6163H343.539C343.686 89.9032 345.091 91.378 347.176 91.378C348.241 91.378 349.113 91.0442 349.889 90.521L350.569 91.7118C349.6 92.3296 348.438 92.8079 346.932 92.8079C344.026 92.8578 341.698 90.7602 341.698 87.1879H341.693ZM349.351 86.3309C349.351 84.1885 348.383 82.9977 346.638 82.9977C345.086 82.9977 343.732 84.1885 343.488 86.3309H349.351Z" fill="#636363"/>
<path d="M50.7675 24.2113C52.4314 24.2113 53.7803 22.8862 53.7803 21.2517C53.7803 19.6173 52.4314 18.2922 50.7675 18.2922C49.1035 18.2922 47.7546 19.6173 47.7546 21.2517C47.7546 22.8862 49.1035 24.2113 50.7675 24.2113Z" fill="white"/>
<path d="M27.5931 19.3484C29.2264 19.3484 30.606 20.6538 30.606 22.3079C30.606 23.962 29.2771 25.2674 27.5931 25.2674C25.9092 25.2674 24.5803 23.962 24.5803 22.3079C24.631 20.6538 25.9599 19.3484 27.5931 19.3484Z" fill="white"/>
<path d="M14.6288 82.0164L22.8456 105.981L12.2297 102.927L1.41089 101.871L14.6288 82.0164Z" fill="white"/>
<path d="M25.2447 55.0469L48.9263 75.6987L41.937 92.4443V92.3945L39.4365 89.3901L18.0981 63.0186L25.194 54.9971L25.2447 55.0469Z" fill="#E2DBD0"/>
<path d="M63.5745 44.3649L48.9263 75.6988L38.4119 40.105L63.5745 44.3649Z" fill="white"/>
<path d="M42.3427 25.9651L39.7407 32.8357L36.3728 26.568L42.3427 25.9651Z" fill="#BA9F81"/>
<path d="M38.4118 40.1049L16.4141 36.0942L15.4453 27.5196L17.4336 18.9948L20.5986 14.2815L21.3137 30.1751L38.4118 40.1049Z" fill="#BA9F81"/>
<path d="M31.0116 7.96875L20.5986 14.2814L17.7937 3.65405L31.0116 7.96875Z" fill="#B27B57"/>
<path d="M61.9413 2L57.4525 10.8237L61.637 18.2972V31.7794L38.4119 40.1049L55.6671 31.2812L58.1677 20.2503L49.54 7.96884L61.9413 2Z" fill="#D7B7A3"/>
<path d="M16.4142 36.094L25.194 54.997L18.0981 63.0185L6.31055 48.4751L16.4142 36.094Z" fill="white"/>
<path d="M31.0115 78.962L22.8455 105.981L14.6287 82.0162L17.54 63.6164L18.098 63.0186L39.4363 89.39L31.0115 78.962Z" fill="#CEBDA9"/>
<path d="M41.9368 92.3945L41.0695 95.1049L35.759 111.098L33.1063 112L22.8455 105.981L41.9368 92.3945Z" fill="#B27B57"/>
<path d="M61.637 31.7793L63.5745 44.3647L38.4119 40.1048L61.637 31.7793Z" fill="#B27B57"/>
<path d="M49.5399 7.96875L39.7406 32.8356L42.3426 25.9649L36.3728 26.5678L27.5422 10.1211L31.0116 7.96875H49.5399Z" fill="white"/>
<path d="M17.5401 63.6165L14.6287 82.0162L1.41084 101.871L1 80.5116L17.5401 63.6165Z" fill="#E2DBD0"/>
<path d="M50.7676 24.2112C52.4008 24.2112 53.7804 22.9058 53.7804 21.2517C53.7804 19.5975 52.4515 18.2921 50.7676 18.2921C49.0836 18.2921 47.7547 19.5975 47.7547 21.2517C47.7547 22.9058 49.1344 24.2112 50.7676 24.2112ZM27.5424 10.1211L36.373 26.518L39.7916 32.8356L49.5401 7.96875L58.1678 20.2502L55.6672 31.2811L38.4677 40.1048L21.3697 30.18L20.6545 14.2365L31.0168 7.96875L27.5475 10.1261L27.5424 10.1211ZM27.5932 25.2126C29.2264 25.2126 30.606 23.9072 30.606 22.2531C30.606 20.599 29.2771 19.2936 27.5932 19.2936C25.9092 19.2936 24.5803 20.599 24.5803 22.2531C24.6311 23.9072 25.96 25.2126 27.5932 25.2126Z" fill="#E2DBD0"/>
<path d="M38.4117 40.1048L25.1939 54.997L16.4141 36.094L38.4117 40.1048Z" fill="#E2DBD0"/>
<path d="M6.31048 48.4751L18.098 63.0185L17.5401 63.6164L1 80.5115L6.31048 48.4751Z" fill="#9B775F"/>
<path d="M39.4363 89.3902L41.9368 92.3945L22.8455 105.981L31.0115 78.9622L39.4363 89.3902Z" fill="white"/>
<path d="M35.7592 111.248L41.0696 95.1048L41.937 92.4443L48.9263 75.6986L63.5745 44.3647L63.7267 68.3298L44.3361 108.841L33.1064 112L35.7592 111.248Z" fill="#CEBDA9"/>
<path d="M38.4117 40.105L48.9262 75.6988L25.2446 55.047L25.1938 54.9972L38.4117 40.105Z" fill="#D7B7A3"/>
<path d="M22.8455 105.981L31.0115 78.9622L39.4363 89.3902" stroke="#030402" stroke-miterlimit="10"/>
<path d="M41.9369 92.4443L41.0696 95.1049" stroke="#030402" stroke-linejoin="bevel"/>
<path d="M31.0116 7.96875L20.5986 14.2814L21.3138 30.175L38.4118 40.1048L55.6671 31.2811L58.1676 20.2502L49.54 7.96875" stroke="#030402" stroke-linejoin="bevel"/>
<path d="M31.0116 7.96875L27.5422 10.1211L36.3728 26.5678" stroke="#030402" stroke-linejoin="bevel"/>
<path d="M39.7407 32.8356L49.54 7.96875" stroke="#030402" stroke-linejoin="bevel"/>
<path d="M48.9263 75.6986L63.5745 44.3647" stroke="#030402" stroke-linejoin="bevel"/>
<path d="M38.4117 40.1048L16.4141 36.094L25.1939 54.997" stroke="#030402" stroke-linejoin="bevel"/>
<path d="M41.9368 92.3945V92.4444L48.9261 75.6987" stroke="#030402" stroke-linejoin="bevel"/>
<path d="M25.194 54.9971L18.0981 63.0186L39.4365 89.3901L41.937 92.3945" stroke="#030402" stroke-linejoin="bevel"/>
<path d="M25.1938 54.9972L25.2446 55.047L48.9262 75.6988L38.4117 40.105L25.1938 54.9972Z" stroke="#030402" stroke-linejoin="bevel"/>
<path d="M17.5402 63.6164L18.0981 63.0185L6.31055 48.4751" stroke="#030402" stroke-linejoin="bevel"/>
<path d="M22.8455 105.981L14.6287 82.0164" stroke="#030402" stroke-linejoin="bevel"/>
<path d="M1.41084 101.871L14.6287 82.0162L17.5401 63.6165L1 80.5116" stroke="#030402" stroke-linejoin="bevel"/>
<path d="M41.9368 92.3945L22.8455 105.981" stroke="#030402" stroke-linejoin="round"/>
<path d="M41.0696 95.1049L41.9369 92.3945" stroke="#030402" stroke-linejoin="bevel"/>
<path d="M41.0696 95.105L35.7592 111.098L33.1064 112L35.7592 111.248L41.0696 95.105Z" stroke="#030402" stroke-linejoin="bevel"/>
<path d="M36.3727 26.5679H36.322L39.7406 32.8356" stroke="#030402" stroke-linejoin="bevel"/>
<path d="M36.3728 26.568L39.7407 32.8357L42.3427 25.9651L36.3728 26.568Z" stroke="#030402" stroke-miterlimit="10"/>
<path d="M37.4685 28.6057L39.7408 32.8357L41.4958 28.2021L37.4685 28.6057Z" fill="#030402" stroke="#030402" stroke-miterlimit="10"/>
<path d="M61.637 31.7793L38.4119 40.1048L63.5745 44.3647" stroke="#030402" stroke-linejoin="bevel"/>
<path d="M27.5931 19.3484C25.9599 19.3484 24.5803 20.6538 24.5803 22.3079C24.5803 23.962 25.9092 25.2674 27.5931 25.2674C29.2771 25.2674 30.606 23.962 30.606 22.3079C30.606 20.6538 29.2771 19.3484 27.5931 19.3484Z" stroke="#030402" stroke-linejoin="bevel"/>
<path d="M50.7675 24.2113C52.4314 24.2113 53.7803 22.8862 53.7803 21.2517C53.7803 19.6173 52.4314 18.2922 50.7675 18.2922C49.1035 18.2922 47.7546 19.6173 47.7546 21.2517C47.7546 22.8862 49.1035 24.2113 50.7675 24.2113Z" stroke="#030402" stroke-linejoin="bevel"/>
<path d="M63.5745 44.3648L61.6369 31.7794V18.2972L57.4524 10.8237L61.9412 2L49.54 7.96884H31.0116L17.7937 3.65414L20.5986 14.2815L17.4336 18.9947L15.4453 27.5195L16.4141 36.0941L6.31048 48.4752L1 80.5116L1.41084 101.871L12.2296 102.927L22.8455 105.981L33.1064 112L44.336 108.841L63.7266 68.3298L63.5745 44.3648Z" stroke="#030402" stroke-miterlimit="10"/>
<path d="M38.4117 40.1048L36.1496 42.4564L16.4141 36.094L38.4117 40.1048Z" fill="#030402"/>
<path d="M3.02881 78.5385L17.043 67.9012L18.098 63.0186L3.02881 78.5385Z" fill="#030402"/>
<path d="M61.4138 57.0597L63.7267 68.3298L63.5745 44.3647L61.4138 57.0597Z" fill="#030402"/>
<path d="M54.5208 9.61297L60.7442 4.04272L57.4321 11.1625L54.5208 9.61297Z" fill="#030402"/>
<path d="M25.2802 11.6359L21.0044 5.99585L27.5423 10.1212L25.2802 11.6359Z" fill="#030402"/>
<path d="M17.7937 3.65405L27.5423 10.1211" stroke="#030402" stroke-linejoin="bevel"/>
</svg>
